<svg width="16" height="16" viewBox="0 0 16 16" fill="none" xmlns="http://www.w3.org/2000/svg">
<circle cx="8" cy="8" r="7.5" fill="url(#paint0_linear_28940_3996)"/>
<path opacity="0.9" d="M5.5 4.5H8.4405C9.03167 4.5 9.53455 4.59342 9.94914 4.78027C10.3663 4.96484 10.6811 5.22575 10.8935 5.56299C11.1059 5.89795 11.2121 6.28988 11.2121 6.73877C11.2121 7.21729 11.0918 7.62744 10.8512 7.96924C10.6107 8.30876 10.2588 8.56055 9.79559 8.72461L11.5 11.5H9.91843L8.37524 8.93311H6.90883V11.5H5.5V4.5ZM8.23321 7.88721C8.75528 7.88721 9.14171 7.79036 9.39251 7.59668C9.64331 7.40299 9.76871 7.11702 9.76871 6.73877C9.76871 6.35596 9.64204 6.06315 9.38868 5.86035C9.13532 5.65527 8.7476 5.55273 8.22553 5.55273H6.90883V7.88721H8.23321Z" fill="white" stroke="white" stroke-width="0.25"/>
<defs>
<linearGradient id="paint0_linear_28940_3996" x1="7.5" y1="1.5" x2="8" y2="21.5" gradientUnits="userSpaceOnUse">
<stop stop-color="#AB927E"/>
<stop offset="1" stop-color="#BCADA1"/>
</linearGradient>
</defs>
</svg>
