<svg width="18" height="18" viewBox="0 0 18 18" fill="none" xmlns="http://www.w3.org/2000/svg">
<rect x="6.6748" y="7.125" width="0.75" height="3.75" rx="0.375" fill="#666666" stroke="#666666" stroke-width="0.75"/>
<path d="M2.4934 7.23719L2.28231 7.95687L2.4934 7.23719ZM2.4934 10.7628L2.28231 10.0431L2.4934 10.7628ZM15.5066 10.7628L15.2955 11.4825L15.5066 10.7628ZM15.5066 7.23719L15.2955 6.5175L15.5066 7.23719ZM3 2.75C2.0335 2.75 1.25 3.5335 1.25 4.5H2.75C2.75 4.36193 2.86193 4.25 3 4.25V2.75ZM15 2.75H3V4.25H15V2.75ZM16.75 4.5C16.75 3.5335 15.9665 2.75 15 2.75V4.25C15.1381 4.25 15.25 4.36193 15.25 4.5H16.75ZM16.75 6.66667V4.5H15.25V6.66667H16.75ZM15 8.91667C15 8.46339 15.3022 8.07874 15.7177 7.95687L15.2955 6.5175C14.2585 6.82167 13.5 7.77961 13.5 8.91667H15ZM15 9.08333V8.91667H13.5V9.08333H15ZM15.7177 10.0431C15.3022 9.92126 15 9.53661 15 9.08333H13.5C13.5 10.2204 14.2585 11.1783 15.2955 11.4825L15.7177 10.0431ZM16.75 13.5V11.3333H15.25V13.5H16.75ZM15 15.25C15.9665 15.25 16.75 14.4665 16.75 13.5H15.25C15.25 13.6381 15.1381 13.75 15 13.75V15.25ZM3 15.25H15V13.75H3V15.25ZM1.25 13.5C1.25 14.4665 2.0335 15.25 3 15.25V13.75C2.86193 13.75 2.75 13.6381 2.75 13.5H1.25ZM1.25 11.3333V13.5H2.75V11.3333H1.25ZM3 9.08333C3 9.53661 2.69781 9.92126 2.28231 10.0431L2.70448 11.4825C3.74151 11.1783 4.5 10.2204 4.5 9.08333H3ZM3 8.91667V9.08333H4.5V8.91667H3ZM2.28231 7.95687C2.69781 8.07874 3 8.46339 3 8.91667H4.5C4.5 7.77961 3.74151 6.82167 2.70448 6.5175L2.28231 7.95687ZM1.25 4.5V6.66667H2.75V4.5H1.25ZM2.70448 6.5175C2.69073 6.51347 2.68959 6.50797 2.70011 6.51945C2.70683 6.52677 2.71935 6.54267 2.73048 6.56897C2.74212 6.59646 2.75 6.6303 2.75 6.66667H1.25C1.25 7.39142 1.82469 7.82265 2.28231 7.95687L2.70448 6.5175ZM2.75 11.3333C2.75 11.3697 2.74212 11.4035 2.73048 11.431C2.71935 11.4573 2.70683 11.4732 2.70011 11.4805C2.68959 11.492 2.69073 11.4865 2.70448 11.4825L2.28231 10.0431C1.82469 10.1774 1.25 10.6086 1.25 11.3333H2.75ZM15.2955 11.4825C15.3093 11.4865 15.3104 11.492 15.2999 11.4805C15.2932 11.4732 15.2807 11.4573 15.2695 11.431C15.2579 11.4035 15.25 11.3697 15.25 11.3333H16.75C16.75 10.6086 16.1753 10.1774 15.7177 10.0431L15.2955 11.4825ZM15.25 6.66667C15.25 6.6303 15.2579 6.59646 15.2695 6.56897C15.2807 6.54267 15.2932 6.52677 15.2999 6.51945C15.3104 6.50797 15.3093 6.51347 15.2955 6.5175L15.7177 7.95687C16.1753 7.82265 16.75 7.39143 16.75 6.66667H15.25Z" fill="#666666"/>
</svg>
